<svg aria-hidden="true" style="position:absolute;width:0;height:0;overflow:hidden" xmlns="http://www.w3.org/2000/svg"><defs><symbol id="icon-button" viewBox="0 0 89 32"><path d="M4 0h80.5a2 2 0 0 1 2 2v24a2 2 0 0 1-2 2H4a2 2 0 0 1-2-2V2a2 2 0 0 1 2-2z"/><path d="M23.113 13.5v.313c0 .43-.056.815-.168 1.156s-.272.631-.48.871c-.206.24-.453.423-.742.551a2.395 2.395 0 0 1-.961.188c-.349 0-.668-.063-.957-.188-.286-.128-.535-.311-.746-.551s-.375-.53-.492-.871a3.61 3.61 0 0 1-.172-1.156V13.5c0-.43.057-.814.172-1.152a2.56 2.56 0 0 1 .484-.871c.211-.242.46-.426.746-.551.289-.128.608-.191.957-.191.352 0 .672.064.961.191.289.125.538.309.746.551.208.24.369.53.48.871.115.339.172.723.172 1.152zm-.98.313v-.32c0-.318-.031-.598-.094-.84a1.72 1.72 0 0 0-.27-.613 1.12 1.12 0 0 0-.434-.375c-.172-.086-.366-.129-.582-.129s-.409.043-.578.129a1.164 1.164 0 0 0-.434.375 1.832 1.832 0 0 0-.27.613 3.352 3.352 0 0 0-.094.84v.32c0 .318.031.599.094.844s.154.452.273.621c.122.167.268.293.438.379.169.083.362.125.578.125.219 0 .413-.042.582-.125.169-.086.313-.212.43-.379.117-.169.206-.376.266-.621.063-.245.094-.526.094-.844zm3.132-.735V16.5h-.941v-4.227h.898l.043.805zm1.293-.832-.008.875a2.542 2.542 0 0 0-.383-.031 1.19 1.19 0 0 0-.426.07.808.808 0 0 0-.497.5c-.045.12-.07.254-.078.402l-.215.016c0-.266.026-.512.078-.738s.13-.426.234-.598c.107-.172.24-.306.398-.402.161-.096.348-.145.559-.145.057 0 .119.005.184.016.068.01.119.022.152.035zm3.41 3.379V10.5h.945v6h-.855l-.09-.875zm-2.75-1.191v-.082c0-.32.038-.612.113-.875a2.08 2.08 0 0 1 .328-.684c.143-.193.318-.34.523-.441.206-.104.438-.156.695-.156.255 0 .479.05.672.148s.357.241.492.426c.135.182.244.401.324.656.081.253.138.534.172.844v.262c-.034.302-.091.578-.172.828s-.189.466-.324.648-.301.323-.496.422a1.46 1.46 0 0 1-.676.148c-.255 0-.486-.053-.691-.16-.203-.107-.376-.256-.52-.449s-.253-.419-.328-.68a3.07 3.07 0 0 1-.113-.855zm.942-.082v.082c0 .193.017.372.051.539.036.167.092.314.168.441a.868.868 0 0 0 .293.297c.122.07.268.105.438.105.214 0 .389-.047.527-.141s.246-.22.324-.379c.081-.162.135-.341.164-.539v-.707a1.72 1.72 0 0 0-.098-.43 1.168 1.168 0 0 0-.191-.348.795.795 0 0 0-.301-.234.948.948 0 0 0-.418-.086c-.172 0-.318.037-.438.109s-.219.173-.297.301c-.076.128-.131.276-.168.445s-.055.35-.055.543zm5.921 2.226c-.313 0-.595-.051-.848-.152a1.87 1.87 0 0 1-.641-.434c-.174-.185-.309-.402-.402-.652s-.141-.52-.141-.809v-.156c0-.331.048-.63.145-.898s.23-.497.402-.688c.172-.193.375-.34.609-.441s.488-.152.762-.152c.302 0 .566.051.793.152s.414.245.563.43c.151.182.263.4.336.652.076.253.113.531.113.836v.402h-3.266v-.676h2.336v-.074a1.314 1.314 0 0 0-.102-.477c-.06-.148-.152-.268-.277-.359s-.292-.137-.5-.137a.827.827 0 0 0-.719.387 1.514 1.514 0 0 0-.188.453 2.53 2.53 0 0 0-.063.59v.156c0 .185.025.357.074.516.052.156.128.293.227.41s.219.21.359.277c.141.065.301.098.48.098.227 0 .428-.046.605-.137s.331-.22.461-.387l.496.48c-.091.133-.21.26-.355.383-.146.12-.324.217-.535.293-.208.076-.45.113-.727.113zm3.691-3.5V16.5h-.941v-4.227h.898l.043.805zm1.293-.832-.008.875a2.542 2.542 0 0 0-.383-.031 1.19 1.19 0 0 0-.426.07.808.808 0 0 0-.497.5c-.045.12-.07.254-.078.402l-.215.016c0-.266.026-.512.078-.738s.13-.426.234-.598c.107-.172.24-.306.398-.402.161-.096.348-.145.559-.145.057 0 .118.005.184.016.068.01.118.022.152.035zm6.308 2.789a.832.832 0 0 0-.055-.313c-.034-.091-.095-.174-.184-.25s-.214-.148-.375-.219a5.067 5.067 0 0 0-.609-.223 6.777 6.777 0 0 1-.75-.277 2.874 2.874 0 0 1-.594-.359 1.548 1.548 0 0 1-.395-.473 1.322 1.322 0 0 1-.141-.621c0-.232.048-.443.145-.633.099-.19.238-.354.418-.492.182-.141.397-.249.645-.324.247-.078.521-.117.82-.117.422 0 .785.078 1.09.234.307.156.543.366.707.629.167.263.25.553.25.871h-.973a.988.988 0 0 0-.121-.496.825.825 0 0 0-.359-.344 1.302 1.302 0 0 0-.605-.125c-.232 0-.425.035-.578.105s-.268.165-.344.285a.75.75 0 0 0-.113.406c0 .107.025.204.074.293.05.086.125.167.227.242.102.073.229.142.383.207s.335.128.543.188c.315.094.59.198.824.313.234.112.43.24.586.383s.273.306.352.488c.078.18.117.384.117.613 0 .24-.048.456-.145.648-.096.19-.234.353-.414.488a1.981 1.981 0 0 1-.641.309c-.247.07-.523.105-.828.105-.273 0-.543-.036-.809-.109a2.397 2.397 0 0 1-.719-.332 1.714 1.714 0 0 1-.516-.563 1.586 1.586 0 0 1-.191-.793h.98c0 .185.031.342.094.473.065.13.155.237.27.32.115.081.247.141.398.18.154.039.318.059.492.059.229 0 .421-.033.574-.098.156-.065.273-.156.352-.273s.117-.253.117-.406zm3.941 1.543c-.313 0-.595-.051-.848-.152a1.87 1.87 0 0 1-.641-.434c-.175-.185-.309-.402-.402-.652s-.141-.52-.141-.809v-.156c0-.331.048-.63.145-.898s.23-.497.402-.688c.172-.193.375-.34.609-.441s.488-.152.762-.152c.302 0 .566.051.793.152s.414.245.563.43c.151.182.263.4.336.652.075.253.113.531.113.836v.402h-3.266v-.676h2.336v-.074a1.314 1.314 0 0 0-.102-.477c-.06-.148-.152-.268-.277-.359s-.292-.137-.5-.137a.827.827 0 0 0-.719.387 1.514 1.514 0 0 0-.188.453 2.53 2.53 0 0 0-.063.59v.156c0 .185.025.357.074.516.052.156.128.293.227.41s.219.21.359.277c.141.065.301.098.48.098.227 0 .428-.046.605-.137s.331-.22.461-.387l.496.48c-.091.133-.209.26-.355.383-.146.12-.325.217-.535.293a2.123 2.123 0 0 1-.727.113zm3.691-3.5V16.5h-.941v-4.227h.898l.043.805zm1.293-.832-.008.875a2.548 2.548 0 0 0-.384-.031 1.18 1.18 0 0 0-.425.07.8.8 0 0 0-.497.5c-.044.12-.071.254-.078.402l-.215.016c0-.266.026-.512.078-.738s.13-.426.234-.598c.106-.172.239-.306.398-.402a1.07 1.07 0 0 1 .559-.145c.057 0 .118.005.184.016.068.01.118.022.153.035zm2.356 3.508 1.035-3.48h.977l-1.468 4.227h-.609l.066-.746zm-.793-3.481 1.054 3.496.051.73h-.609l-1.477-4.227h.98zm4.714 0V16.5h-.946v-4.227h.946zm-1.008-1.109a.48.48 0 0 1 .141-.355.539.539 0 0 1 .398-.145c.166 0 .298.048.395.145a.476.476 0 0 1 .145.355c0 .141-.048.258-.145.352s-.228.141-.395.141a.543.543 0 0 1-.398-.141.477.477 0 0 1-.141-.352zm4.086 4.664c.154 0 .291-.03.414-.09a.777.777 0 0 0 .3-.258.698.698 0 0 0 .129-.379h.887c-.005.273-.086.522-.243.746s-.363.402-.621.535c-.258.13-.543.195-.855.195-.323 0-.604-.055-.843-.164-.24-.112-.439-.266-.598-.461s-.279-.421-.359-.676a2.793 2.793 0 0 1-.117-.82v-.137c0-.292.039-.565.117-.82.081-.258.2-.484.359-.68s.358-.348.598-.457c.239-.112.52-.168.84-.168.339 0 .635.068.891.203.255.133.456.319.602.559.148.237.225.513.231.828h-.887a.939.939 0 0 0-.117-.422.777.777 0 0 0-.289-.305.822.822 0 0 0-.441-.113.876.876 0 0 0-.472.117.783.783 0 0 0-.293.313c-.071.13-.121.277-.153.441a2.84 2.84 0 0 0-.043.504v.137c0 .174.014.344.043.508s.078.311.148.441a.87.87 0 0 0 .297.309.913.913 0 0 0 .477.113zm4.636.75c-.313 0-.595-.051-.847-.152a1.879 1.879 0 0 1-.641-.434c-.174-.185-.308-.402-.403-.652s-.141-.52-.141-.809v-.156c0-.331.048-.63.144-.898s.231-.497.403-.688c.171-.193.375-.34.609-.441s.489-.152.762-.152c.302 0 .567.051.793.152s.414.245.563.43c.151.182.263.4.336.652.076.253.113.531.113.836v.402h-3.266v-.676h2.336v-.074a1.314 1.314 0 0 0-.102-.477c-.06-.148-.153-.268-.278-.359s-.291-.137-.5-.137a.816.816 0 0 0-.718.387c-.08.125-.144.276-.188.453a2.53 2.53 0 0 0-.063.59v.156c0 .185.025.357.074.516.052.156.127.293.227.41s.219.21.359.277c.141.065.3.098.481.098.227 0 .428-.046.606-.137s.331-.22.461-.387l.496.48a1.94 1.94 0 0 1-.356.383c-.146.12-.325.217-.535.293a2.123 2.123 0 0 1-.727.113z"/></symbol><symbol id="icon-hamburger" viewBox="0 0 47 32"><path stroke-linejoin="round" stroke-linecap="round" stroke-width="4.364" d="M1.96 29.154h42.965M1.96 15.615h42.965M1.96 2.077h42.965"/></symbol><symbol id="icon-logo1" viewBox="0 0 63 32"><path d="M31.653 15.244a1.685 1.685 0 0 1-.346-1.138v-1.65c0-.506.115-.89.344-1.153s.624-.394 1.183-.393c.525 0 .898.112 1.119.336.24.286.358.635.331.987v.388h-.94v-.393a2.056 2.056 0 0 0-.027-.384.373.373 0 0 0-.134-.228.541.541 0 0 0-.34-.089.577.577 0 0 0-.358.094.443.443 0 0 0-.156.252 1.93 1.93 0 0 0-.037.408v2.003c-.015.193.027.387.121.562.047.06.112.107.188.136s.16.041.242.032c.12.009.24-.024.333-.091a.4.4 0 0 0 .14-.243 2.16 2.16 0 0 0 .029-.401v-.406h.94v.371c.026.367-.088.732-.325 1.038-.216.245-.584.368-1.124.368s-.949-.131-1.181-.403zM35.565 15.261c-.237-.257-.356-.631-.356-1.127v-1.736c0-.49.119-.861.356-1.113s.634-.377 1.191-.376c.553 0 .947.125 1.185.376.237.252.358.623.358 1.113v1.736c0 .49-.121.866-.362 1.125s-.634.388-1.181.388-.951-.131-1.191-.386zm1.629-.417a.968.968 0 0 0 .113-.514v-2.125a.943.943 0 0 0-.111-.504c-.048-.061-.114-.109-.192-.138s-.164-.04-.248-.03c-.084-.01-.17 0-.248.03s-.145.077-.193.138a.922.922 0 0 0-.113.504v2.136a.95.95 0 0 0 .113.514c.055.054.122.098.198.127a.68.68 0 0 0 .484 0 .59.59 0 0 0 .198-.127v-.01zM39.429 10.96h1.012l.761 3.203.778-3.203h.984l.099 4.623h-.728l-.078-3.213-.751 3.213h-.584l-.778-3.225-.072 3.225h-.735l.091-4.623zM44.198 10.96h1.576c.908 0 1.362.438 1.362 1.313 0 .838-.478 1.257-1.434 1.256h-.537v2.055h-.973l.006-4.623zm1.346 1.975c.096.011.194.003.286-.022s.177-.067.249-.124a.744.744 0 0 0 .14-.522 1.457 1.457 0 0 0-.047-.42c-.014-.046-.038-.089-.072-.127s-.075-.069-.123-.093a1.012 1.012 0 0 0-.434-.074h-.377v1.382h.377zM48.538 10.96h1.045l1.072 4.623h-.907l-.212-1.066h-.932l-.218 1.066h-.92l1.072-4.623zm.893 3.021-.364-1.941-.364 1.941h.728zM51.521 10.96h.681l1.303 2.637V10.96h.807v4.623h-.648l-1.311-2.753v2.753h-.835l.002-4.623zM56.204 13.82l-1.084-2.854h.912l.661 1.833.62-1.833h.893l-1.07 2.854v1.763h-.934V13.82zM33.155 17.604v.242h-.794v1.879h-.333v-1.879h-.798v-.242h1.924zM35.643 19.724h-.257a.119.119 0 0 1-.072-.02.113.113 0 0 1-.043-.049l-.23-.504H33.94l-.23.504a.147.147 0 0 1-.035.057.119.119 0 0 1-.072.02h-.257l.973-2.12h.339l.984 2.112zm-1.611-.787h.918l-.389-.863a1.447 1.447 0 0 1-.072-.2l-.037.113-.035.089-.385.861zM37.32 19.516c.061.003.122.003.183 0 .053-.005.105-.013.156-.025.048-.01.094-.023.14-.039.043-.015.086-.034.13-.052v-.477h-.389c-.01 0-.019-.001-.028-.004a.07.07 0 0 1-.039-.03.038.038 0 0 1-.005-.021v-.163h.755v.813a1.497 1.497 0 0 1-.654.217 2.687 2.687 0 0 1-.284.013 1.497 1.497 0 0 1-.49-.079 1.178 1.178 0 0 1-.389-.222 1.028 1.028 0 0 1-.251-.336 1.07 1.07 0 0 1-.09-.44 1.099 1.099 0 0 1 .088-.443.97.97 0 0 1 .251-.336 1.19 1.19 0 0 1 .389-.22c.167-.054.343-.081.521-.079.091 0 .181.006.27.018a1.303 1.303 0 0 1 .427.138c.06.033.116.07.169.111l-.093.131c-.007.012-.018.022-.032.029s-.029.011-.044.011a.123.123 0 0 1-.06-.017 1.127 1.127 0 0 1-.095-.05.947.947 0 0 0-.13-.057 1.208 1.208 0 0 0-.426-.065 1.165 1.165 0 0 0-.376.059.835.835 0 0 0-.286.168.734.734 0 0 0-.181.264.99.99 0 0 0 0 .707c.043.1.109.191.195.267.08.073.177.13.284.168.124.037.255.051.385.042zM40.421 19.483h1.062v.242h-1.387v-2.12h.333l-.008 1.879zM42.589 19.724h-.333v-2.12h.333v2.12zM43.826 17.614c.02.01.037.023.051.039l1.422 1.598a.482.482 0 0 1 0-.076V17.595h.29v2.129h-.167a.146.146 0 0 1-.072-.012.211.211 0 0 1-.053-.04l-1.42-1.597v1.649h-.278v-2.12h.173a.14.14 0 0 1 .054.01zM48.038 17.604v.233h-1.179v.7h.955v.225h-.955v.724h1.179v.233h-1.521v-2.115h1.521zM13.176 4.51l14.772 3.619v12.683l-14.772-3.618V4.509zm-.947-1.081v14.382l16.666 4.084V7.515L12.229 3.429z"/><path d="M21.161 28.572 4.494 24.484V10.103l16.667 4.086v14.382z"/><path d="m12.505 4.347 14.58 3.574-6.2 5.352L6.303 9.697l6.202-5.35zm-.276-.918-7.735 6.675 16.667 4.086 7.734-6.675-16.666-4.086zM22.098 27.762l6.796-5.866-6.796-1.667v7.532z"/></symbol><symbol id="icon-logo2" viewBox="0 0 63 32"><path d="M16.36 24.918c.14.156.215.352.211.553.007.131-.019.262-.075.383s-.143.229-.252.316c-.273.185-.61.276-.951.255h-1.671v-3.504h1.637c.323-.019.644.063.907.233.106.08.189.18.244.294s.08.238.073.361a.76.76 0 0 1-.19.536.91.91 0 0 1-.498.274.975.975 0 0 1 .565.3zm-1.961-.529h.7a.719.719 0 0 0 .445-.116c.053-.043.093-.096.12-.155s.037-.123.031-.187a.397.397 0 0 0-.148-.342.733.733 0 0 0-.458-.118h-.688v.919zm1.214 1.344c.056-.044.1-.099.129-.161s.041-.129.036-.195c.004-.068-.009-.135-.038-.198s-.074-.118-.131-.162a.786.786 0 0 0-.475-.127H14.4v.964h.744a.794.794 0 0 0 .47-.122zM19.707 26.424l-.911-1.369h-.342v1.369h-.783V22.92h1.483c.374-.023.743.083 1.032.298.207.19.332.441.353.707s-.066.529-.242.743a1.239 1.239 0 0 1-.707.356l.97 1.4h-.852zm-1.253-1.847h.641c.445 0 .667-.177.667-.531.005-.072-.008-.145-.036-.212s-.072-.13-.128-.181a.75.75 0 0 0-.504-.142h-.648l.008 1.067zM23.989 25.719h-1.561l-.276.705h-.822l1.434-3.465h.888l1.428 3.465h-.821l-.27-.705zm-.209-.53-.57-1.479-.57 1.479h1.141zM29.349 26.424h-.778l-1.744-2.383v2.383h-.776V22.92h.776l1.744 2.397V22.92h.778v3.504zM33.787 25.586c-.161.265-.406.48-.704.618-.339.154-.714.23-1.093.221h-1.384v-3.504h1.384c.379-.009.754.065 1.093.216.298.135.543.348.704.611.16.285.243.6.243.919s-.083.634-.243.919zm-.89-.084c.222-.233.344-.529.344-.836s-.122-.603-.344-.836a1.448 1.448 0 0 0-.974-.298h-.54V25.8h.54c.355.02.705-.087.974-.298zM24.475 3.429s10.038 3.412 9.825 8.349v8.351s-10.031-3.413-9.822-8.351l-.004-8.349zM43.244 18.173c1.896-1.175 4.089-1.902 6.378-2.116v-2.614c-2.638.915-4.875 2.575-6.378 4.73z"/><path d="M42.105 18.961c1.552-2.813 4.242-4.983 7.517-6.065V5.364s-14.296 4.86-13.993 11.891v11.889s.637-.217 1.639-.625c0-.38 0-.764.046-1.149.296-3.264 2.02-6.289 4.792-8.409z"/><path d="M40.745 23.377c.075-.825.243-1.64.5-2.434-1.726 1.831-2.772 4.103-2.989 6.497-.021.226-.032.452-.038.685a43.581 43.581 0 0 0 2.75-1.304 11.103 11.103 0 0 1-.222-3.443zM41.314 23.42a10.594 10.594 0 0 0 .177 3.117c3.906-2.104 8.294-5.355 8.125-9.284v-.342c-2.791.281-5.401 1.379-7.431 3.126a10.75 10.75 0 0 0-.871 3.383z"/></symbol><symbol id="icon-logo3" viewBox="0 0 63 32"><path d="M22.749 27.556c.009 0 .018.002.027.005s.016.008.022.014l.126.119a1.034 1.034 0 0 1-.355.225 1.4 1.4 0 0 1-.503.081 1.348 1.348 0 0 1-.473-.076 1.044 1.044 0 0 1-.357-.213.935.935 0 0 1-.23-.329 1.08 1.08 0 0 1-.08-.422 1.006 1.006 0 0 1 .087-.423.99.99 0 0 1 .244-.329 1.14 1.14 0 0 1 .379-.214c.155-.051.321-.077.487-.076.155-.003.309.02.453.069.125.046.24.111.339.19l-.106.127a.087.087 0 0 1-.027.023.07.07 0 0 1-.043.009.107.107 0 0 1-.046-.014l-.057-.034-.079-.043a.9.9 0 0 0-.25-.076 1.074 1.074 0 0 0-.188-.013 1.032 1.032 0 0 0-.35.057.73.73 0 0 0-.452.412.857.857 0 0 0-.065.334.85.85 0 0 0 .065.34.73.73 0 0 0 .437.408.936.936 0 0 0 .325.054c.064.001.129-.003.192-.011a.784.784 0 0 0 .417-.174.105.105 0 0 1 .06-.022zM26.392 26.96c.002.143-.027.285-.085.419-.051.122-.132.233-.238.325s-.232.166-.373.214c-.309.101-.65.101-.959 0a1.127 1.127 0 0 1-.371-.214.956.956 0 0 1-.24-.329 1.074 1.074 0 0 1 0-.84.982.982 0 0 1 .24-.33c.106-.09.232-.16.371-.206.308-.102.651-.102.959 0 .14.049.267.122.372.214a.958.958 0 0 1 .323.747zm-.331 0a.873.873 0 0 0-.06-.337.687.687 0 0 0-.436-.411 1.122 1.122 0 0 0-.697 0 .747.747 0 0 0-.267.159.678.678 0 0 0-.17.252.976.976 0 0 0 0 .674.703.703 0 0 0 .437.41c.225.072.472.072.697 0a.7.7 0 0 0 .436-.41.873.873 0 0 0 .06-.337zM28.878 27.314l.033.076.036-.076a.768.768 0 0 1 .041-.074l.806-1.252c.016-.022.03-.035.046-.039a.21.21 0 0 1 .066-.007h.238v2.036h-.282v-1.56a.41.41 0 0 1 0-.07l-.811 1.269c-.01.019-.027.035-.047.046s-.045.017-.069.017h-.046c-.025 0-.049-.006-.069-.017s-.037-.027-.047-.047l-.834-1.277V27.974h-.273v-2.032h.238a.21.21 0 0 1 .066.007c.02.008.035.022.044.039l.823 1.253c.016.023.03.047.041.073zM31.911 27.212v.763h-.315v-2.034h.704a1.57 1.57 0 0 1 .393.044.793.793 0 0 1 .278.127.53.53 0 0 1 .158.199.619.619 0 0 1 .054.26.56.56 0 0 1-.228.463.822.822 0 0 1-.279.135 1.347 1.347 0 0 1-.38.047l-.382-.005zm0-.218h.382a.915.915 0 0 0 .245-.031.554.554 0 0 0 .177-.088.38.38 0 0 0 .145-.306c.004-.057-.007-.113-.032-.166s-.062-.1-.11-.139a.69.69 0 0 0-.424-.109h-.382v.838zM36.151 27.978h-.249a.116.116 0 0 1-.11-.066l-.215-.492H34.5l-.222.492a.115.115 0 0 1-.11.066h-.249l.946-2.036h.328l.959 2.036zm-1.562-.756h.89l-.375-.829a1.33 1.33 0 0 1-.071-.191l-.036.106a.95.95 0 0 1-.035.086l-.372.828zM37.514 25.951a.131.131 0 0 1 .047.036l1.38 1.535v-1.58h.282v2.036h-.158a.16.16 0 0 1-.065-.012.161.161 0 0 1-.05-.038l-1.379-1.534a.41.41 0 0 1 0 .07v1.514h-.282v-2.036h.167a.18.18 0 0 1 .057.009zM41.549 27.168v.809h-.316v-.809l-.872-1.226h.282a.116.116 0 0 1 .068.018.187.187 0 0 1 .043.046l.546.791c.022.034.041.065.057.094s.028.058.039.086l.041-.088a.624.624 0 0 1 .054-.093l.538-.797a.208.208 0 0 1 .041-.043.107.107 0 0 1 .068-.02h.285l-.874 1.232zM28.722 22.524c.137.015.276.027.416.038 2.128-.813 3.929-2.145 5.176-3.828s1.887-3.643 1.838-5.634l-2.346-2.004c.477 2.12.254 4.313-.644 6.331s-2.436 3.783-4.441 5.098z"/><path d="m27.884 22.431.063.011c2.143-1.31 3.776-3.138 4.69-5.25s1.064-4.408.433-6.594l-3.341-2.854c1.351 2.346 1.895 4.972 1.568 7.572s-1.511 5.067-3.414 7.115zM39.215 15.453c-.568 2.188-1.946 4.162-3.931 5.628-.58.43-1.205.814-1.868 1.145 1.616-.406 3.102-1.123 4.342-2.097s2.202-2.178 2.812-3.52l-1.355-1.156z"/><path d="m38.683 15.131-1.929-1.648c-.037 1.879-.662 3.716-1.811 5.318s-2.779 2.914-4.721 3.796h.009c.433 0 .865-.022 1.295-.066 1.815-.633 3.419-1.64 4.667-2.931s2.104-2.827 2.489-4.469zM28.163 6.54l-2.301-1.969c-2.057.679-3.827 1.873-5.077 3.426s-1.922 3.392-1.928 5.276c.008 2.082.828 4.103 2.331 5.742s3.603 2.803 5.967 3.308c2.111-2.197 3.346-4.912 3.528-7.75s-.701-5.652-2.52-8.032zM44 14.827c-.008-2.47-1.161-4.838-3.205-6.585s-4.815-2.731-7.707-2.739a12.44 12.44 0 0 0-3.907.621l14.09 12.039A8.056 8.056 0 0 0 44 14.826z"/></symbol><symbol id="icon-logo4" viewBox="0 0 63 32"><path d="M29.779 2.82h-.078c-.12-.007-.24-.01-.36-.013h-.26c-.227 0-.458.006-.688.017a.451.451 0 0 0-.052 0 16.167 16.167 0 0 0-6.009 1.533l-.247.119v12.652l.578-.196a22.494 22.494 0 0 1 1.607-.477 19.624 19.624 0 0 1 4.626-.615v1.662c-.207.002-.408.007-.609.017h-.048a18.54 18.54 0 0 0-3.559.546c-1.477.37-2.901.925-4.24 1.652V3.49a16.979 16.979 0 0 1 4.448-1.809 17.043 17.043 0 0 1 4.192-.541h.244c.292.007.577.02.844.041.705.049 1.404.161 2.089.333V3.15a12.928 12.928 0 0 0-2.024-.305l-.042-.004c-.141-.012-.282-.024-.414-.024zm2.88 1.672c.363.028.739.041 1.119.041a17.95 17.95 0 0 0 4.407-.565 18.14 18.14 0 0 0 4.238-1.654v15.938a17.068 17.068 0 0 1-4.449 1.809c-1.37.352-2.778.533-4.192.539a12.765 12.765 0 0 1-3.18-.375V4.184c.246.057.499.109.756.153.422.071.867.123 1.301.155zm8.111.124-.578.195a25.05 25.05 0 0 1-1.607.481 19.61 19.61 0 0 1-4.804.616c-.377 0-.724-.01-1.06-.032l-.461-.03v13.015l.396.035c.367.032.746.048 1.128.048a15.335 15.335 0 0 0 3.783-.49 15.84 15.84 0 0 0 2.956-1.062l.247-.119V4.617zM21.564 25.264a.856.856 0 0 0-.643-.26.953.953 0 0 0-.372.07.828.828 0 0 0-.475.481.957.957 0 0 0-.067.359v2.168a1.03 1.03 0 0 0 .085.445c.051.111.125.21.217.291a.752.752 0 0 0 .298.154c.105.03.214.045.324.045a.906.906 0 0 0 .828-.568.873.873 0 0 0 .069-.346v-.243h-.567v.193a.506.506 0 0 1-.033.193.35.35 0 0 1-.082.122.35.35 0 0 1-.119.063.367.367 0 0 1-.119.02.283.283 0 0 1-.266-.116.512.512 0 0 1-.075-.291v-2.021a.686.686 0 0 1 .069-.324.284.284 0 0 1 .277-.13c.049-.002.097.008.141.03s.082.053.112.092a.461.461 0 0 1 .094.291v.188h.561v-.221a1.022 1.022 0 0 0-.069-.379.893.893 0 0 0-.189-.305zM24.931 25.239a1.005 1.005 0 0 0-.645-.238.976.976 0 0 0-.637.238.886.886 0 0 0-.22.304 1.01 1.01 0 0 0-.082.42v2.079c-.004.146.024.292.082.426a.838.838 0 0 0 .22.291c.087.08.188.143.299.183a.976.976 0 0 0 .982-.183.893.893 0 0 0 .296-.717v-2.079a1.01 1.01 0 0 0-.082-.42.927.927 0 0 0-.214-.304zm-.265 2.804a.377.377 0 0 1-.112.301.414.414 0 0 1-.534 0 .38.38 0 0 1-.112-.301v-2.079a.377.377 0 0 1 .112-.301.414.414 0 0 1 .534 0 .38.38 0 0 1 .112.301v2.079zM29.353 28.971v-3.936h-.545l-.716 2.084h-.01l-.721-2.084h-.539v3.936h.562v-2.395h.01l.551 1.693h.28l.555-1.693h.01v2.395h.562zM32.547 25.311a.785.785 0 0 0-.318-.215 1.254 1.254 0 0 0-.408-.061h-.836v3.936h.561v-1.537h.289c.175.008.349-.029.506-.108a.824.824 0 0 0 .308-.301.94.94 0 0 0 .129-.343c.022-.148.032-.298.03-.448a2.258 2.258 0 0 0-.055-.562.828.828 0 0 0-.207-.362zm-.289 1.2a.49.49 0 0 1-.052.205.313.313 0 0 1-.145.138.574.574 0 0 1-.265.049h-.256v-1.338h.289a.55.55 0 0 1 .253.049.32.32 0 0 1 .132.145.572.572 0 0 1 .049.219v.262c0 .092.006.186 0 .27h-.006zM35.204 25.035h-.46l-.867 3.936h.561l.165-.846h.765l.165.846h.561l-.889-3.936zm-.517 2.554.276-1.427h.01l.275 1.427h-.561zM38.828 27.406h-.01l-.847-2.371h-.539v3.936h.561v-2.367h.012l.857 2.367h.528v-3.936h-.561v2.371zM42.255 25.035l-.451 1.565h-.012l-.451-1.565h-.594l.77 2.273v1.664h.561v-1.664l.77-2.273h-.594zM20 30.082h.27v.759h.184v-.759h.269v-.155H20v.155zM22.273 29.927l-.354.914h.195l.075-.208h.364l.078.208h.2l-.363-.914h-.195zm-.029.552.124-.339.124.339h-.249zM24.519 30.504h.211v.118a.357.357 0 0 1-.217.077.23.23 0 0 1-.193-.087.39.39 0 0 1-.068-.238c0-.203.088-.305.263-.305a.194.194 0 0 1 .207.145l.181-.035c-.039-.179-.168-.269-.387-.269a.458.458 0 0 0-.319.118.457.457 0 0 0-.131.351.498.498 0 0 0 .117.343.446.446 0 0 0 .347.134.548.548 0 0 0 .387-.145v-.36h-.396v.154zM26.813 29.927h-.185v.914h.64v-.155h-.455v-.759zM28.753 29.927h-.185v.914h.185v-.914zM30.65 30.537l-.374-.61h-.179v.914h.172v-.597l.367.597h.184v-.914h-.169v.61zM32.364 30.438h.455v-.155h-.455v-.201h.49v-.155h-.675v.914h.694v-.155h-.509v-.247zM36.521 30.287h-.36v-.36h-.184v.914h.184v-.4h.36v.4h.184v-.914h-.184v.36zM38.246 30.438h.457v-.155h-.457v-.201h.492v-.155h-.675v.914h.692v-.155h-.509v-.247zM40.585 30.439c.159-.025.24-.109.24-.254a.213.213 0 0 0-.09-.203.516.516 0 0 0-.267-.054h-.387v.914h.184v-.382h.036a.262.262 0 0 1 .114.02c.027.017.049.04.065.067l.2.291h.22l-.111-.179a.642.642 0 0 0-.202-.219zm-.185-.127h-.136v-.23h.145a.47.47 0 0 1 .186.022.117.117 0 0 1 .04.095c-.001.018-.006.035-.014.051s-.02.029-.035.04a.53.53 0 0 1-.186.022zM42.349 30.438h.455v-.155h-.455v-.201h.492v-.155h-.676v.914h.694v-.155h-.509v-.247z"/></symbol><symbol id="icon-logo5" viewBox="0 0 63 32"><path d="m23.345 2.286 3.907 3.909L20 6.19v18.965h18.955v-7.251l3.902 3.904V2.285H23.345zm15.438 15.159L27.706 6.362h11.077v11.083zm-3.439 4.936H22.999V9.626h.873v11.891h11.472v.864zm-9.862 6.243-.472-.97h-.389l.684 1.284v.748h.353v-.748l.684-1.284h-.388l-.472.97zm1.739-.97h.084l.767 2.031h-.368l-.164-.476h-.786l-.164.476h-.367l.765-2.031h.234zm-.373 1.278h.595l-.298-.862-.297.862zm2.455-.336-.044-.057c-.052-.069-.093-.135-.121-.2s-.043-.132-.043-.201c0-.106.022-.197.066-.273s.106-.135.186-.176a.593.593 0 0 1 .28-.063c.103 0 .192.021.266.063s.133.095.173.163a.439.439 0 0 1 .026.399c-.023.053-.055.101-.096.145s-.088.085-.142.124l-.141.103.402.475a.826.826 0 0 0 .088-.379h.29c0 .099-.01.192-.029.28a.896.896 0 0 1-.149.336l.298.351h-.389l-.118-.139a.826.826 0 0 1-.523.167c-.135 0-.252-.025-.35-.074s-.175-.117-.229-.204a.557.557 0 0 1-.08-.297c0-.083.017-.155.052-.218s.081-.122.141-.176c.055-.05.118-.1.188-.15zm.167.204-.042.031c-.049.04-.086.079-.11.116a.322.322 0 0 0-.057.181c0 .06.012.113.038.162s.064.087.113.116a.37.37 0 0 0 .183.042.514.514 0 0 0 .225-.052.661.661 0 0 0 .104-.064l-.452-.532zm.08-.371.125-.084c.059-.039.1-.077.126-.114s.038-.086.038-.142c0-.048-.019-.093-.056-.134s-.09-.061-.158-.061a.204.204 0 0 0-.194.121.284.284 0 0 0-.024.119c0 .042.011.085.032.13s.051.09.088.138l.023.029zm3.554.595h-.349c-.01.088-.032.163-.064.225s-.079.107-.141.138a.522.522 0 0 1-.241.047c-.082 0-.152-.016-.211-.049s-.107-.079-.145-.138c-.037-.06-.065-.131-.084-.213s-.026-.177-.026-.279v-.172c0-.108.01-.204.029-.287s.051-.156.091-.213a.406.406 0 0 1 .358-.176c.098 0 .177.017.237.05s.106.08.137.142a.628.628 0 0 1 .061.225h.349c-.014-.136-.052-.256-.114-.361s-.148-.187-.26-.247-.248-.089-.41-.089c-.127 0-.242.022-.345.067s-.188.109-.261.194c-.073.084-.128.185-.167.303s-.057.25-.057.396v.169c0 .146.019.278.056.396s.093.219.165.303c.072.083.158.147.258.192s.213.067.339.067c.164 0 .303-.03.417-.089s.203-.141.266-.244a.82.82 0 0 0 .112-.356zm1.938-.298v-.112c0-.154-.02-.291-.061-.412s-.097-.226-.172-.311c-.074-.087-.163-.152-.266-.197s-.218-.068-.343-.068c-.125 0-.239.023-.342.068s-.191.11-.266.197c-.074.086-.132.189-.173.311s-.061.258-.061.412v.112c0 .153.02.291.061.413s.1.226.176.311a.767.767 0 0 0 .608.264c.126 0 .24-.022.343-.067s.192-.111.265-.197c.074-.086.132-.189.172-.311s.06-.259.06-.413zm-.351-.115v.114c0 .113-.011.214-.033.301s-.053.161-.095.222c-.042.06-.093.105-.154.135s-.13.045-.208.045c-.077 0-.146-.015-.206-.045s-.112-.076-.156-.135c-.043-.06-.075-.134-.098-.222s-.033-.188-.033-.301v-.114c0-.113.011-.213.033-.3.022-.087.054-.16.096-.219s.094-.104.155-.134c.06-.031.129-.046.206-.046s.147.015.208.046c.061.03.113.074.155.134s.075.132.096.219c.022.086.033.186.033.3z"/></symbol><symbol id="icon-logo6" viewBox="0 0 36 32"><path d="M17.351 1.842h-.01c-8.482 0-15.359 6.2-15.359 13.847v.009c0 7.647 6.876 13.847 15.359 13.847h.01c8.482 0 15.359-6.2 15.359-13.847v-.009c0-7.647-6.876-13.847-15.359-13.847z"/></symbol><symbol id="icon-twitter" viewBox="0 0 32 32"><path d="m32 2.667-32 15 10.227 3.156L26 8.5 14.002 21.988l.01.003-.012-.003v7.345l5.735-5.576L27 25.999l5-23.333z"/></symbol></defs></svg>